. 
 
http://www.torrenting.com          :     Once & For all ;)


               www . Torrenting . Com 

(((((((((((((= Enjoy No RAR releases =))))))))))))))))))))


...................................NFO:....................................

.                                                                
 @@@@@@@   @@@  @@@  @@@  @@@@@@@@  @@@@@@@   @@@@@@    @@@  @@@@@@@  @@@ @@@ 
 @@@@@@@@  @@@  @@@  @@@  @@@@@@@@  @@@@@@@@  @@@@@@@   @@@  @@@@@@@  @@@ @@@ 
 @@!  @@@  @@!  @@!  @@@  @@!       @@!  @@@  !@@       @@!    @@!    @@! !@@ 
 !@!  @!@  !@!  !@!  @!@  !@!       !@!  @!@  !@!       !@!    !@!    !@! @!! 
 @!@  !@!  !!@  @!@  !@!  @!!!:!    @!@!!@!   !!@@!!    !!@    @!!     !@!@!  
 !@!  !!!  !!!  !@!  !!!  !!!!!:    !!@!@!     !!@!!!   !!!    !!!      @!!!  
 !!:  !!!  !!:  :!:  !!:  !!:       !!: :!!        !:!  !!:    !!:      !!:   
 :!:  !:!  :!:   ::!!:!   :!:       :!:  !:!      !:!   :!:    :!:      :!:   
 :::: ::   ::    ::::     :: ::::   ::   :::  :::: ::    ::     ::       ::   
 :: :  :   :       :      : :: ::    :   : :  :: : :    :       :        :       


   
General

Complete name                    : The.Last.Lions.2011.LIMITED.720p.BRRip.Xvid.AC3.DiVERSiTY
Format                           : AVI
Format/Info                      : Audio Video Interleave
File size                        : 1.75 GiB
Duration                         : 1h 29mn
Overall bit rate                 : 2 803 Kbps   
Encoded by                       : Hibees
 
Source                           : The.Last.Lions.2011.LIMITED.720p.BluRay.x264-THUGLiNE    
   
http://www.imdb.com/title/tt1692928/

 
Video

Format                           : MPEG-4 Visual
Format profile                   : Streaming Video@L1
Format settings, BVOP            : Yes
Format settings, QPel            : No
Format settings, GMC             : No warppoints
Format settings, Matrix          : Default
Codec ID                         : XVID
Codec ID/Hint                    : XviD
Duration                         : 1h 29mn
Bit rate                         : 2 348 Kbps
Width                            : 1 280 pixels
Height                           : 720 pixels
Display aspect ratio             : 16/9
Frame rate                       : 23.976 fps
Resolution                       : 24 bits
Colorimetry                      : 4:2:0
Scan type                        : Progressive
Bits/(Pixel*Frame)               : 0.106
Stream size                      : 1.46 GiB (84%)
Writing library                  : XviD 1.2.1 (UTC 2008-12-04)



Audio

Format                           : AC-3
Format/Info                      : Audio Coding 3
Codec ID                         : 2000
Duration                         : 1h 29mn
Bit rate mode                    : Constant
Bit rate                         : 448 Kbps
Channel(s)                       : 6 channels
Channel positions                : Front: L C R, Surround: L R, LFE
Sampling rate                    : 48.0 KHz
Stream size                      : 286 MiB (16%)
Alignment                        : Aligned on interleaves
Interleave, duration             : 64 ms (1.53 video frames)
Interleave, preload duration     : 192 ms
Title                            : tl-tll.720p - [2] English




Plot:

Fifty years ago there were close to half-a-million lions in Africa. 
Today there are around 20,000. To make matters worse, lions, unlike 
elephants, which are far more numerous, have virtually no protection 
under government mandate or through international accords. This is 
the jumping-off point for a disturbing, well-researched and beautifully 
made cri de coeur from husband and wife team Dereck and Beverly Joubert, 
award-winning filmmakers from Botswana who have been Explorers-in-
Residence at National Geographic for more than four years.



Greets:

To Everyone who makes p2p possible...... Thanks.